<?xml version="1.0" standalone="no"?>
<!DOCTYPE svg PUBLIC "-//W3C//DTD SVG 20010904//EN"
 "http://www.w3.org/TR/2001/REC-SVG-20010904/DTD/svg10.dtd">
<svg version="1.0" xmlns="http://www.w3.org/2000/svg"
 width="500.000000pt" height="500.000000pt" viewBox="0 0 500.000000 500.000000"
 preserveAspectRatio="xMidYMid meet">
<metadata>
Created by potrace 1.14, written by Peter Selinger 2001-2017
</metadata>
<g transform="translate(0.000000,500.000000) scale(0.100000,-0.100000)"
fill="#000000" stroke="none">
<path d="M2440 4365 c0 -5 -24 -11 -53 -12 -64 -3 -177 -17 -222 -28 -13 -3
-60 -14 -115 -27 -56 -13 -172 -49 -185 -57 -5 -3 -14 -6 -20 -7 -20 -3 -162
-69 -220 -103 -33 -19 -70 -39 -82 -45 -13 -6 -23 -14 -23 -18 0 -5 -5 -8 -11
-8 -17 0 -161 -112 -226 -177 -18 -18 -33 -30 -33 -28 0 3 -26 -23 -57 -58
-31 -34 -61 -63 -65 -65 -4 -2 -8 -10 -8 -17 0 -7 -4 -15 -9 -17 -12 -4 -91
-105 -91 -116 0 -5 -7 -15 -15 -22 -8 -6 -31 -42 -52 -78 -21 -37 -43 -76 -50
-87 -7 -11 -17 -30 -23 -43 -5 -13 -21 -46 -34 -75 -24 -51 -79 -206 -87 -245
-1 -4 -8 -27 -15 -52 -7 -25 -15 -58 -18 -75 -3 -16 -8 -41 -11 -55 -31 -146
-36 -455 -10 -592 3 -16 7 -38 9 -50 2 -13 9 -43 16 -67 6 -23 9 -49 6 -57 -3
-8 -1 -14 4 -14 6 0 10 -8 10 -18 0 -21 59 -190 96 -274 55 -125 159 -293 245
-399 35 -42 37 -47 24 -70 -26 -44 -27 -49 -21 -64 4 -11 22 -15 73 -15 64 0
70 -3 108 -37 22 -19 60 -52 85 -72 25 -20 46 -39 48 -43 2 -5 9 -8 16 -8 7 0
21 -9 31 -20 10 -11 24 -20 31 -20 7 0 14 -4 16 -9 10 -29 325 -186 433 -217
6 -1 42 -12 80 -24 39 -11 81 -22 95 -25 14 -3 36 -7 50 -10 60 -12 78 -15
120 -22 97 -15 422 -9 516 11 12 2 37 7 55 10 67 11 88 16 154 37 38 11 75 22
84 24 27 5 102 36 191 78 47 22 88 40 93 39 4 -1 7 3 7 8 0 6 4 10 10 10 9 0
169 97 180 110 3 3 31 25 63 49 33 25 80 64 105 88 l47 43 107 0 c131 0 139 9
84 92 l-35 52 24 30 c14 17 31 41 37 54 6 12 15 22 20 22 4 0 8 6 8 13 0 8 9
25 20 38 31 37 35 44 38 59 2 8 9 22 16 30 16 18 95 184 100 210 1 3 4 10 8
15 7 11 68 201 73 228 3 10 6 26 9 35 5 18 8 30 26 147 20 124 27 328 14 415
-6 37 -12 93 -18 150 -2 19 -7 42 -10 51 -4 9 -6 20 -5 25 1 5 0 11 -1 14 -1
3 -3 12 -5 20 -7 35 -26 107 -34 125 -5 11 -16 45 -26 75 -40 124 -116 277
-192 391 -26 39 -52 79 -58 87 -5 9 -14 21 -20 28 -5 6 -30 36 -55 65 -85 103
-263 273 -274 262 -3 -4 -6 -2 -6 4 0 6 -33 32 -72 59 -40 27 -75 51 -78 54
-3 3 -16 11 -30 18 -14 7 -59 30 -100 52 -130 69 -380 160 -439 160 -10 0 -21
3 -24 6 -3 4 -21 8 -39 10 -18 2 -46 5 -63 8 -78 11 -177 19 -250 20 -44 1
-83 6 -87 11 -5 7 -8 7 -8 0z m-385 -397 c3 -3 8 -21 11 -40 7 -43 -14 -68
-58 -68 -34 0 -57 23 -58 58 0 41 20 59 61 58 21 -1 41 -5 44 -8z m483 -68
c13 -21 2 -39 -26 -45 -17 -3 -23 2 -28 22 -10 38 33 57 54 23z m-170 -6 c12
-8 22 -26 22 -39 0 -27 -33 -55 -58 -50 -9 2 -20 4 -25 4 -12 1 -27 49 -20 67
5 13 33 31 53 33 3 1 16 -6 28 -15z m443 -71 c13 -17 13 -17 -6 -3 -11 8 -22
16 -24 17 -2 2 0 3 6 3 6 0 17 -8 24 -17z m-605 -35 c11 -13 25 -34 31 -48 30
-63 70 -156 71 -163 3 -26 48 -107 58 -107 7 0 28 28 46 62 33 61 58 85 58 54
0 -9 -12 -49 -26 -89 -38 -107 -34 -154 21 -249 25 -43 45 -82 45 -87 0 -5 4
-11 8 -13 12 -5 63 -138 57 -148 -3 -5 -1 -11 5 -15 5 -3 10 -17 10 -31 0 -13
4 -24 9 -24 11 0 36 30 25 30 -5 0 -4 4 1 8 20 14 120 237 130 288 2 11 4 19
5 19 1 0 3 7 6 15 35 134 29 194 -30 280 -45 65 -57 95 -43 109 6 6 15 11 20
11 11 0 47 -39 47 -50 0 -4 18 -13 40 -20 40 -13 44 -19 54 -80 2 -14 9 -45
16 -70 7 -25 14 -56 16 -70 7 -42 13 -50 28 -44 8 3 29 -2 45 -12 l30 -18 -47
-23 c-79 -39 -121 -102 -137 -203 -5 -28 -46 -150 -90 -268 -44 -117 -44 -119
14 -46 27 35 64 52 103 49 25 -2 36 1 31 8 -3 5 -1 7 5 3 5 -3 12 -3 15 1 2 5
2 3 1 -4 -4 -16 13 -26 19 -13 3 6 4 5 3 -2 -2 -7 -9 -12 -15 -10 -6 1 -14 -5
-17 -13 -4 -8 -12 -15 -20 -15 -8 0 -15 -10 -16 -22 0 -13 -2 -28 -2 -34 -1
-6 -21 -34 -44 -61 -53 -61 -87 -120 -112 -193 -28 -83 -33 -131 -34 -290 l-1
-145 -42 -56 c-40 -52 -77 -131 -67 -142 3 -3 1 -8 -5 -12 -6 -3 -11 0 -11 7
0 8 -16 46 -34 85 -27 57 -36 89 -40 150 -7 100 -28 196 -57 259 -13 27 -25
51 -28 54 -23 20 -61 82 -56 90 10 15 23 12 28 -7 4 -17 5 -17 6 0 0 10 -10
22 -24 29 -14 6 -25 15 -25 20 0 4 -6 8 -12 8 -7 -1 -2 -10 11 -20 13 -11 19
-20 14 -20 -5 0 -20 11 -33 25 -13 14 -38 28 -57 31 -18 3 -36 10 -39 15 -3 5
-15 9 -27 9 -38 0 -1 24 45 29 4 1 5 7 2 15 -4 10 1 15 13 15 10 1 30 2 45 3
28 2 128 -40 128 -54 0 -4 7 -8 15 -8 8 0 15 -4 15 -9 0 -5 7 -12 16 -15 14
-5 16 1 11 46 -6 50 -14 93 -17 93 -1 0 -3 13 -5 28 -9 71 -97 221 -170 290
-42 40 -121 97 -134 97 -4 0 -18 9 -31 20 -21 18 -22 21 -4 19 3 0 12 8 20 18
7 10 14 14 14 8 0 -5 4 -4 9 3 18 29 63 16 140 -42 71 -53 201 -218 201 -254
0 -6 4 -13 8 -16 4 -3 7 8 6 23 -9 134 -36 225 -108 370 -52 102 -115 254
-121 291 0 3 -11 39 -24 80 -27 86 -44 123 -72 151 -27 27 -24 39 9 39 17 0
37 -9 48 -22z m378 -80 c33 -47 11 -91 -45 -91 -36 0 -46 9 -53 46 -10 57 66
91 98 45z m-189 -39 c12 -37 -27 -57 -65 -34 -16 10 -5 48 16 55 25 10 42 2
49 -21z m-249 -17 c36 -28 38 -56 8 -92 -22 -25 -32 -30 -53 -25 -34 8 -60 42
-59 77 1 20 9 31 32 42 39 20 46 19 72 -2z m871 -28 c19 -29 -4 -68 -43 -72
-62 -6 -83 80 -24 100 21 7 52 -6 67 -28z m-1100 -13 c12 -15 12 -30 2 -71 -5
-19 -26 -28 -66 -29 -28 -1 -35 4 -47 32 -11 27 -11 36 0 59 8 14 19 29 26 31
21 9 72 -4 85 -22z m1319 -12 c12 -10 4 -16 -42 -35 -32 -13 -60 -27 -63 -33
-4 -5 -16 -5 -33 2 -22 10 -25 15 -15 27 33 40 124 63 153 39z m-639 -98 c6
-1 15 -14 21 -29 23 -67 -53 -112 -96 -57 -12 15 -18 34 -15 45 7 26 39 49 61
45 9 -2 22 -4 29 -4z m701 -29 c22 -29 15 -76 -16 -94 -23 -14 -32 -14 -58 -3
-40 17 -44 28 -35 96 1 3 11 11 24 17 27 13 68 5 85 -16z m-1713 -26 c18 -13
18 -14 -3 -25 -12 -6 -22 -8 -22 -4 0 4 -5 1 -10 -7 -9 -13 -10 -13 -10 0 0
11 -2 12 -8 3 -5 -7 -13 -9 -21 -3 -12 7 -12 10 0 22 13 13 35 25 50 27 3 1
14 -5 24 -13z m232 -16 c22 -26 25 -50 8 -76 -19 -29 -47 -35 -83 -17 -27 13
-31 20 -28 49 4 58 68 85 103 44z m1719 -55 c34 -34 6 -97 -44 -101 -37 -2
-64 24 -64 63 0 52 69 77 108 38z m-1318 -25 c29 -27 28 -55 -2 -85 -18 -18
-31 -23 -52 -19 -42 8 -54 22 -54 64 0 28 5 39 23 48 34 17 61 14 85 -8z m439
-54 c11 -10 17 -36 14 -63 0 -7 -12 -19 -24 -28 -32 -21 -85 -3 -93 32 -8 29
12 70 35 76 21 6 53 -2 68 -17z m-1077 -20 c0 2 6 -1 13 -8 12 -10 12 -15 0
-26 -11 -11 -17 -11 -28 -2 -8 7 -15 9 -15 5 0 -5 -9 0 -20 10 -25 23 -8 38
27 24 12 -5 23 -6 23 -3z m1776 6 c44 -28 5 -101 -42 -80 -28 13 -32 49 -8 72
17 17 33 20 50 8z m-187 -54 c10 -17 10 -22 -5 -33 -14 -10 -22 -10 -36 -1
-17 10 -24 37 -13 47 12 12 43 5 54 -13z m-1544 -18 c-25 -17 -26 -19 -8 -17
12 0 20 4 17 8 -2 4 5 9 16 12 11 3 20 0 20 -6 0 -6 3 -8 6 -4 4 3 13 0 20 -8
8 -8 22 -12 32 -9 16 5 16 5 0 -6 -10 -6 -18 -16 -18 -21 0 -6 15 -1 33 11 26
18 28 18 10 2 -12 -11 -20 -22 -17 -25 3 -2 -10 -3 -28 -2 -18 2 -39 -2 -45
-7 -9 -7 -13 -7 -13 1 0 6 -5 11 -11 11 -13 0 -49 38 -49 52 0 4 7 8 16 8 8 0
13 4 10 8 -2 4 5 9 17 9 18 2 17 0 -8 -17z m158 -45 c-3 -9 -8 -14 -10 -11 -3
3 -2 9 2 15 9 16 15 13 8 -4z m1870 -9 c35 -27 25 -102 -14 -107 -5 -1 -15 -2
-21 -3 -28 -5 -68 28 -68 54 0 54 61 87 103 56z m-663 -56 c3 -4 13 -6 23 -4
19 3 21 -4 7 -26 -9 -13 -10 -13 -10 0 0 13 -1 13 -10 0 -5 -8 -12 -12 -15 -8
-4 3 -20 2 -37 -3 -42 -12 -61 3 -46 36 9 21 16 24 47 19 20 -3 38 -9 41 -14z
m401 10 c14 0 40 -58 29 -65 -6 -4 -8 -10 -5 -15 5 -9 -44 -40 -63 -40 -5 0
-21 12 -35 26 -24 23 -25 27 -12 57 13 32 40 49 63 41 8 -2 18 -4 23 -4z m425
-18 c32 -20 21 -72 -13 -66 -7 1 -17 2 -22 3 -16 2 -23 41 -11 56 14 16 29 19
46 7z m-2134 -61 c4 -1 12 -10 18 -22 16 -29 3 -77 -23 -85 -35 -12 -47 -13
-47 -3 0 5 -7 9 -15 9 -22 0 -33 31 -23 67 8 32 26 43 63 37 11 -1 23 -3 27
-3z m1994 -64 c10 -10 -37 -48 -76 -62 -39 -14 -39 -13 -53 15 -16 31 -12 36
43 47 13 2 26 6 28 8 5 5 52 -1 58 -8z m-336 -52 c11 -18 20 -34 20 -36 0 -2
-33 -5 -73 -6 -82 -3 -125 -8 -147 -16 -8 -3 -37 -11 -65 -18 -27 -6 -54 -15
-60 -18 -16 -9 -65 -8 -65 1 0 5 -4 6 -10 3 -13 -8 0 28 14 37 7 5 6 8 -3 8
-11 0 -10 4 5 16 10 8 13 13 7 9 -9 -4 -11 -1 -7 9 9 24 99 45 218 51 43 2 80
6 83 8 12 13 64 -18 83 -48z m-1431 26 c31 -27 31 -78 1 -103 -41 -33 -108 -2
-106 50 2 34 12 51 40 62 32 13 41 12 65 -9z m262 -63 c27 -51 14 -86 -37
-102 -27 -8 -74 28 -74 58 0 38 28 66 65 66 25 0 37 -6 46 -22z m1464 -17 c6
-3 19 -7 30 -8 23 -4 41 -20 32 -29 -4 -4 -27 -7 -52 -8 -48 0 -73 18 -55 40
6 6 7 14 3 18 -7 7 23 -2 42 -13z m-2016 -46 c16 -3 47 -14 68 -24 21 -10 62
-29 91 -41 48 -22 67 -40 41 -40 -6 0 -8 -7 -5 -16 4 -10 2 -13 -6 -7 -16 9
-48 12 -48 3 0 -4 -7 -7 -15 -7 -8 0 -15 5 -15 10 0 6 -3 7 -7 4 -3 -4 -13 -1
-22 6 -42 35 -152 60 -205 46 -25 -7 -28 -6 -23 11 3 11 1 20 -4 20 -5 0 -4 9
3 20 16 25 73 31 147 15z m2147 -58 c33 -12 45 -48 27 -85 -24 -49 -89 -46
-112 4 -13 28 -5 53 22 75 21 17 27 18 63 6z m-496 -19 c44 -48 -1 -125 -63
-107 -38 10 -58 37 -53 72 8 55 77 76 116 35z m-1525 -88 c-3 -5 3 -11 13 -14
16 -6 28 -37 13 -34 -3 1 -13 -1 -21 -5 -8 -3 -33 -9 -55 -13 -22 -4 -47 -9
-55 -11 -25 -7 -80 -7 -86 0 -4 3 -3 18 0 33 4 14 10 24 13 20 3 -3 12 -1 20
6 7 6 16 9 19 6 2 -3 19 0 37 6 41 14 109 18 102 6z m-457 -88 c24 -31 -6 -98
-36 -83 -10 5 -30 14 -46 20 -25 10 -28 15 -22 43 3 18 12 36 19 40 18 12 70
0 85 -20z m2371 -86 c10 -9 17 -27 16 -39 -1 -12 -3 -28 -4 -34 -1 -17 -51
-40 -78 -35 -12 2 -27 10 -34 18 -17 20 -14 72 6 94 19 21 68 19 94 -4z
m-2048 -12 c40 -36 10 -109 -42 -102 -67 9 -84 75 -30 114 19 15 48 10 72 -12z
m-61 -381 c-17 -37 -41 -89 -53 -115 -12 -26 -27 -47 -34 -48 -17 0 -29 23
-15 28 7 2 12 10 12 17 0 8 7 21 16 29 8 9 13 16 10 16 -3 0 15 34 40 76 26
41 48 73 51 70 3 -3 -9 -35 -27 -73z m2002 40 c96 -154 145 -249 136 -261 -16
-19 -29 -3 -82 100 -26 51 -51 100 -56 108 -10 18 -40 82 -40 87 0 15 23 -4
42 -34z"/>
<path d="M2859 2813 c-13 -16 -12 -17 4 -4 9 7 17 15 17 17 0 8 -8 3 -21 -13z"/>
<path d="M1570 3249 c0 -5 5 -7 10 -4 6 3 10 8 10 11 0 2 -4 4 -10 4 -5 0 -10
-5 -10 -11z"/>
<path d="M1678 3183 c6 -2 12 -12 12 -21 0 -15 2 -15 10 -2 9 15 -4 30 -25 29
-5 0 -4 -3 3 -6z"/>
</g>
</svg>
